<?xml version="1.0" encoding="UTF-8" standalone="no"?>
<svg
   xmlns:dc="http://purl.org/dc/elements/1.1/"
   xmlns:cc="http://creativecommons.org/ns#"
   xmlns:rdf="http://www.w3.org/1999/02/22-rdf-syntax-ns#"
   xmlns:svg="http://www.w3.org/2000/svg"
   xmlns="http://www.w3.org/2000/svg"
   id="svg5314"
   version="1.1"
   viewBox="0 0 15.875 29.897917"
   height="113"
   width="60">
  <defs
     id="defs5308" />
  <metadata
     id="metadata5311">
    <rdf:RDF>
      <cc:Work
         rdf:about="">
        <dc:format>image/svg+xml</dc:format>
        <dc:type
           rdf:resource="http://purl.org/dc/dcmitype/StillImage" />
        <dc:title></dc:title>
      </cc:Work>
    </rdf:RDF>
  </metadata>
  <g
     transform="translate(0,-267.10207)"
     id="layer1">
    <path
       id="path5887"
       d="m 0.003635,293.31529 0.0036,-3.70742 0.188908,0.54499 c 0.638682,1.84254 2.023013,3.45155 4.0814798,4.7439 0.686943,0.43127 2.411518,1.17292 3.202591,1.37727 0.323377,0.0835 0.583126,0.17591 0.577218,0.20529 -0.0059,0.0294 0.335704,0.0628 0.759141,0.0742 0.909333,0.0246 1.6851222,-0.12863 2.2934762,-0.45288 1.658333,-0.88388 2.690692,-2.82404 2.585772,-4.85956 -0.05345,-1.03696 -0.209667,-2.12678 -0.432124,-3.01463 -0.244892,-0.9773 -1.042569,-2.64708 -1.572672,-3.29203 -0.833326,-1.01387 -1.678969,-1.71241 -2.5696452,-2.12264 -1.16279,-0.53557 -1.903661,-0.61332 -2.599617,-0.27282 -1.161566,0.5683 -1.677938,1.73993 -1.21145,2.74876 0.199786,0.43205 0.224187,0.62906 0.07792,0.62906 -0.123551,0 -0.427199,-0.471 -0.622702,-0.9659 -0.08112,-0.20534 -0.33701,-0.77022 -0.568653,-1.25528 -0.83957,-1.75809 -1.058364,-2.40037 -2.2031808,-6.46757 -0.367137,-1.30433 -0.465373,-1.77104 -0.653165,-3.10312 -0.121567,-0.86234 -0.253527,-1.87657 -0.293241,-2.25385 -0.03972,-0.37727 -0.117933,-1.09753 -0.173819,-1.60056 -0.05588,-0.50303 -0.106231,-1.41437 -0.111881,-2.02519 l -0.01027,-1.1106 2.7764808,-0.0181 c 1.527062,-0.01 2.842624,-0.002 2.923468,0.0176 0.110561,0.0269 0.146989,0.0828 0.146989,0.22577 0,0.18322 -0.01348,0.19146 -0.37564,0.22954 -1.477587,0.15538 -2.296633,0.48823 -3.059317,1.24327 -1.5717378,1.55597 -1.8610868,3.75695 -0.8803858,6.69676 0.698219,2.09304 1.3798278,3.1593 2.6683788,4.17426 0.682362,0.53747 1.091664,0.77781 1.842951,1.08215 0.508688,0.20607 0.724055,0.25694 1.194062,0.28206 0.542972,0.029 0.595886,0.0196 0.995961,-0.17736 0.491341,-0.24189 0.997791,-0.70878 1.2149592,-1.12006 0.120167,-0.22757 0.152737,-0.39317 0.15393,-0.78264 0.0014,-0.46877 -0.01633,-0.52928 -0.348113,-1.18541 -0.3759082,-0.7434 -0.4095912,-0.77043 -0.9601022,-0.77043 -0.286655,0 -0.617472,0.27533 -0.617472,0.5139 0,0.29724 0.177106,0.48253 0.432689,0.45269 0.244516,-0.0285 0.28857,0.0377 0.09424,0.1417 -0.200434,0.10727 -0.606469,0.0784 -0.832087,-0.0592 -0.375283,-0.22883 -0.730597,-1.02504 -0.649748,-1.456 0.04097,-0.21841 0.248918,-0.50772 0.364932,-0.50772 0.03373,0 0.03304,0.0878 -0.0017,0.20881 -0.129622,0.45196 0.320164,0.68318 0.680091,0.34961 0.333875,-0.30942 0.156848,-0.86994 -0.311908,-0.98759 -0.495407,-0.12434 -1.039978,0.26017 -1.119498,0.79044 -0.06519,0.43475 -0.0074,0.79881 0.200354,1.26171 0.220288,0.49087 0.444942,0.69333 0.923801,0.83253 0.388208,0.11286 0.671291,0.0895 1.03885,-0.0858 0.179688,-0.0857 0.237063,-0.0894 0.320065,-0.0205 0.146202,0.12134 0.125029,0.51558 -0.04586,0.85385 -0.263858,0.52229 -0.789058,0.75042 -1.618183,0.70285 -0.606271,-0.0348 -1.013993,-0.21088 -1.870023,-0.80771 -0.718242,-0.50076 -0.809086,-0.63525 -0.64356,-0.95273 0.941704,-1.80619 1.331653,-2.87749 1.384292,-3.80305 0.05919,-1.04084 -0.23009,-1.87437 -0.841204,-2.42381 -0.796243,-0.71589 -1.681834,-0.81115 -2.335932,-0.25127 -0.5020148,0.42971 -0.6529768,0.98982 -0.377193,1.39951 0.18532,0.27529 0.447343,0.40809 0.697011,0.35326 0.21652,-0.0476 0.525467,-0.30978 0.525467,-0.446 0,-0.14993 -0.260473,-0.43657 -0.396714,-0.43657 -0.08182,0 -0.125916,-0.0452 -0.125916,-0.12898 0,-0.28257 0.717632,-0.43353 1.106054,-0.23267 0.50006,0.25859 0.802629,0.88398 0.840365,1.73698 0.02417,0.54638 0.002,0.71998 -0.178071,1.39475 -0.299527,1.12235 -0.964786,2.37914 -1.209624,2.28519 -0.197861,-0.0759 -0.849177,-1.29479 -1.155207,-2.16184 -0.5584368,-1.58217 -0.6978838,-3.19923 -0.3822948,-4.43317 0.179846,-0.7032 0.7034978,-1.65723 0.9646278,-1.75743 0.150002,-0.0576 0.512276,0.22443 1.195436,0.93053 0.87593,0.90534 1.699086,1.87538 2.426527,2.85952 0.642146,0.86874 1.916969,2.85495 2.231807,3.47722 0.155839,0.308 0.162726,0.34875 0.06527,0.38615 -0.09673,0.0371 -0.09776,0.05 -0.0092,0.11474 0.2451972,0.1793 1.4137222,2.36188 1.7859502,3.33582 1.419474,3.71407 1.379645,3.59311 1.95005,5.92234 0.557255,2.27552 0.801173,3.69963 0.953993,5.56985 0.03255,0.39837 0.08917,1.06239 0.125827,1.4756 0.03665,0.41321 0.06689,1.39069 0.0672,2.17219 l 5.56e-4,1.4209 H 7.3495028 0 Z m 8.0793738,2.16795 c -0.831412,-0.18482 -2.238368,-0.71609 -2.922953,-1.10371 -0.368106,-0.20842 -0.952097,-0.59234 -1.297756,-0.85316 -0.618914,-0.46699 -1.4450858,-1.26339 -1.4450858,-1.39301 0,-0.1519 0.22672,-0.26797 0.7746858,-0.39662 0.701693,-0.16473 1.55997,-0.17801 2.123023,-0.0328 1.131755,0.2918 2.13262,1.20488 2.13262,1.94558 0,0.28051 -0.142743,0.59501 -0.296907,0.65416 -0.155427,0.0596 -0.160397,0.0557 -0.160397,-0.12703 0,-0.43766 -0.387436,-0.58016 -0.654449,-0.24071 -0.278891,0.35455 -0.01938,0.87216 0.484696,0.96672 0.478495,0.0898 1.080196,-0.37657 1.284464,-0.99551 0.107305,-0.32514 0.04803,-0.84824 -0.138881,-1.22572 -0.08757,-0.17685 -0.353685,-0.51923 -0.591365,-0.76084 -0.340107,-0.34574 -0.562732,-0.50213 -1.045263,-0.73428 -1.240655,-0.59691 -2.427951,-0.61095 -4.0618428,-0.048 -0.61216,0.2109 -0.781668,0.0636 -1.085573,-0.94317 -0.300409,-0.99521 -0.288238,-1.86642 0.03617,-2.5893 0.289087,-0.64417 0.767547,-0.96921 1.427673,-0.96987 0.263456,-2.7e-4 0.6937928,0.17256 0.7308528,0.29351 0.01101,0.0359 -0.117447,0.13883 -0.2854598,0.22866 -0.4086,0.21845 -0.558317,0.43838 -0.594368,0.87312 -0.02351,0.28348 0.0038,0.42855 0.133888,0.71284 0.442663,0.9669 1.3695058,1.42096 2.1171408,1.03719 0.588518,-0.3021 0.670677,-1.08092 0.142821,-1.35388 -0.24891,-0.12872 -0.477615,-0.0784 -0.618028,0.13586 -0.154034,0.23508 -0.07268,0.46228 0.219675,0.61349 l 0.244003,0.1262 -0.183906,0.0709 c -0.342982,0.13212 -0.881696,0.0244 -1.166613,-0.23326 -0.4430328,-0.40066 -0.5536388,-1.32766 -0.182132,-1.52649 0.177783,-0.0952 0.190187,-0.0841 0.180947,0.16172 -0.01546,0.4114 0.324968,0.63312 0.699345,0.45547 0.244525,-0.11604 0.358379,-0.35731 0.358379,-0.75946 0,-0.30883 -0.109903,-0.53289 -0.459574,-0.9369 -0.146004,-0.16869 -0.25142,-0.32076 -0.234257,-0.33792 0.01716,-0.0172 0.122468,-0.0112 0.234017,0.0134 0.266984,0.0586 0.513068,0.39517 1.457437,1.99309 1.190997,2.01523 3.567567,5.20813 4.8339712,6.4944 0.209102,0.21238 0.371472,0.43287 0.360824,0.48997 -0.05768,0.30929 -1.6568872,0.49452 -2.5518202,0.29557 z m 3.1622852,-1.28601 c -0.152014,-0.11678 -0.507204,-0.4916 -0.78931,-0.83294 -0.5090072,-0.61589 -0.7999732,-0.98116 -2.0652342,-2.59258 -0.864459,-1.10096 -2.610598,-3.99318 -2.80311,-4.64292 -0.06973,-0.23536 0.129373,-0.25549 0.528449,-0.0534 0.259416,0.13135 0.403457,0.16703 0.54702,0.1355 0.586637,-0.12885 0.616051,-1.14337 0.03315,-1.14337 -0.213251,0 -0.209518,-0.11632 0.0064,-0.1984 0.11236,-0.0427 0.252491,-0.0422 0.414771,0.002 0.640173,0.17238 1.002991,0.68602 1.01123,1.43161 0.0043,0.38579 -0.01785,0.47032 -0.17811,0.68082 -0.215283,0.28278 -0.332659,0.31637 -0.238305,0.0682 0.123031,-0.3236 -0.292197,-0.70953 -0.608388,-0.56546 -0.552743,0.25184 -0.237169,1.12958 0.406122,1.12958 0.378722,0 0.66555,-0.1386 0.895189,-0.43256 0.377719,-0.48353 0.45477,-1.10901 0.215423,-1.74873 -0.236214,-0.63133 -0.790549,-1.06187 -1.455593,-1.13051 -0.399601,-0.0412 -0.694538,0.0628 -1.041452,0.3674 l -0.236601,0.20774 -0.04475,-0.23853 c -0.154101,-0.82142 0.784396,-1.63225 1.742187,-1.50519 0.589491,0.0782 1.385912,0.42155 1.953717,0.84229 0.8293982,0.61459 0.8721612,0.70075 0.5572672,1.12292 -0.3694112,0.49526 -0.9473032,1.84265 -1.1488002,2.67849 -0.184713,0.76621 -0.226032,1.60113 -0.106896,2.16003 0.136609,0.64087 0.336741,1.03202 0.738673,1.4437 0.5729562,0.58686 1.2636962,0.79519 1.9170422,0.57818 0.63153,-0.20976 0.994657,-0.70446 1.008994,-1.37458 0.0082,-0.38206 -0.21413,-0.61932 -0.623083,-0.665 -0.475555,-0.0531 -0.811761,0.33314 -0.562985,0.64681 0.111119,0.14011 0.243836,0.17276 0.457303,0.1125 0.157881,-0.0446 0.179654,-0.0328 0.179654,0.0967 0,0.23762 -0.278806,0.44605 -0.643541,0.4811 -0.642532,0.0617 -1.057319,-0.22202 -1.4088582,-0.9638 -0.191695,-0.4045 -0.201435,-0.46461 -0.201191,-1.24169 2.47e-4,-0.92342 0.0795,-1.25358 0.5741692,-2.39318 0.338166,-0.77906 0.597609,-1.14949 0.785437,-1.12145 0.323724,0.0483 1.245402,2.13517 1.446929,3.27611 0.05173,0.29288 0.143329,0.76769 0.203552,1.05514 0.13107,0.62561 0.09628,2.06788 -0.06383,2.64582 -0.180286,0.65078 -0.887672,1.89453 -1.077521,1.89453 -0.02678,0 -0.173073,-0.0955 -0.325088,-0.21231 z m 4.504987,-1.66589 c -0.103502,-1.11203 -0.303141,-2.58814 -0.426313,-3.15212 -0.05101,-0.23355 -0.141743,-0.80681 -0.201635,-1.27391 -0.185316,-1.4453 -1.165123,-4.99038 -1.722416,-6.23193 -0.138813,-0.30926 -0.328411,-0.77397 -0.421329,-1.03269 -0.09292,-0.25873 -0.259941,-0.65068 -0.371159,-0.87101 -0.111219,-0.22032 -0.31521,-0.65539 -0.453314,-0.96682 -0.138103,-0.31143 -0.415736,-0.91076 -0.616962,-1.33185 -0.201225,-0.42109 -0.365864,-0.81134 -0.365864,-0.86723 0,-0.0559 -0.07257,-0.1292 -0.161272,-0.16292 -0.0887,-0.0337 -0.191697,-0.11384 -0.228883,-0.17804 -1.0919202,-1.88506 -2.1478342,-3.40381 -3.2512992,-4.67642 -1.260516,-1.45373 -2.069627,-2.34823 -2.391759,-2.64416 -0.16703,-0.15344 -0.303691,-0.30696 -0.303691,-0.34115 0,-0.0342 0.169038,-0.11388 0.375641,-0.1771 0.588031,-0.17993 2.03955,-0.16118 2.727483,0.0352 1.956552,0.55861 3.3506052,1.24603 4.6192512,2.2778 0.697743,0.56747 0.670071,0.71744 -0.172118,0.93283 -0.641958,0.16419 -1.847162,0.18085 -2.4133762,0.0334 -1.202582,-0.31323 -2.046805,-1.15098 -1.907605,-1.89298 0.03909,-0.20836 0.249982,-0.49101 0.366359,-0.49101 0.03453,0 0.06278,0.0861 0.06278,0.19132 0,0.38309 0.423749,0.54296 0.625004,0.2358 0.158254,-0.24152 0.02309,-0.60464 -0.270749,-0.72742 -0.752977,-0.31461 -1.464578,0.14164 -1.517512,0.97297 -0.07915,1.24306 1.245879,2.31959 3.1884522,2.59049 0.635761,0.0887 1.381561,-8.5e-4 2.475788,-0.29712 0.343937,-0.0931 0.683409,-0.14879 0.771942,-0.12656 0.117453,0.0295 0.214829,0.16067 0.379256,0.51096 0.557411,1.1875 0.542008,2.62645 -0.03562,3.32721 -0.269054,0.32641 -0.788099,0.57389 -1.203359,0.57376 -0.322351,-1.3e-4 -0.760902,-0.16161 -0.797989,-0.29388 -0.01007,-0.0359 0.09159,-0.13307 0.225932,-0.21587 0.340873,-0.2101 0.549289,-0.54061 0.586751,-0.93048 0.0628,-0.65354 -0.627159,-1.62681 -1.224839,-1.72779 -0.622781,-0.10522 -1.473245,0.35117 -1.548309,0.83088 -0.03372,0.21547 -0.01176,0.26956 0.192321,0.47363 0.287169,0.28717 0.562822,0.30893 0.807973,0.0638 0.195518,-0.19552 0.17235,-0.44408 -0.05965,-0.63994 -0.139836,-0.11804 -0.140202,-0.12251 -0.01739,-0.21232 0.326109,-0.23845 0.973889,0.0389 1.204795,0.51594 0.161964,0.33457 0.178415,0.8066 0.03524,1.01102 -0.140521,0.20062 -0.224947,0.18156 -0.224947,-0.0508 0,-0.28434 -0.21955,-0.48153 -0.48044,-0.43151 -0.233859,0.0448 -0.47798,0.29038 -0.541905,0.54508 -0.02384,0.095 -0.0093,0.29979 0.0322,0.45514 0.04155,0.15534 0.07554,0.34081 0.07554,0.41216 0,0.0861 0.04387,0.12972 0.13047,0.12972 0.07176,0 0.243141,0.10179 0.380852,0.22621 0.424933,0.3839 0.807626,0.51881 1.48121,0.52215 0.532827,0.003 0.621653,-0.0155 0.947269,-0.19306 0.19762,-0.1078 0.51503,-0.34979 0.705355,-0.53777 0.599069,-0.5917 0.835539,-1.32909 0.780768,-2.4347 -0.02524,-0.50956 -0.07452,-0.73754 -0.27533,-1.27391 -0.345132,-0.92186 -0.55105,-1.25334 -1.271323,-2.04654 -0.65638,-0.72284 -1.339857,-1.29741 -1.878558,-1.57922 -0.171711,-0.0898 -0.450517,-0.24552 -0.619569,-0.34598 -0.379483,-0.22551 -1.9132202,-0.89402 -2.5157902,-1.09655 -0.245214,-0.0824 -0.828019,-0.22519 -1.29512,-0.31726 -0.830488,-0.16371 -0.849732,-0.17139 -0.869947,-0.34707 l -0.02067,-0.17965 h 4.5120332 4.512034 v 13.16378 c 0,7.24008 -0.0092,13.16378 -0.02054,13.16378 -0.0113,0 -0.05817,-0.40423 -0.104148,-0.89828 z M 4.5e-5,280.46137 c 0,-3.98209 0.01222,-7.22792 0.02717,-7.21295 0.01494,0.015 0.116636,0.48289 0.225991,1.03982 0.501374,2.55346 0.879367,4.09693 1.246244,5.08882 0.111575,0.30165 0.304305,0.89752 0.428287,1.32416 0.123985,0.42664 0.311604,0.98828 0.416934,1.24809 0.105328,0.25981 0.330782,0.82516 0.501005,1.25633 0.170224,0.43117 0.5256328,1.20232 0.7897938,1.71367 0.264165,0.51135 0.4803,0.97436 0.4803,1.02893 0,0.15037 -0.311668,0.12371 -0.825168,-0.0706 -0.5113618,-0.19349 -1.1945368,-0.22689 -1.6096928,-0.0787 -0.509645,0.18193 -1.137852,0.82272 -1.486722,1.5165 l -0.19414,0.38607 z"
       style="fill:#e6e6e6;stroke-width:0.06532892" />
  </g>
</svg>
